<svg id="Layer_1" data-name="Layer 1" xmlns="http://www.w3.org/2000/svg" viewBox="0 0 234.33 85.2"><defs><style>.cls-1{fill:#fff;}</style></defs><title>CLC_Logo_Xsmall_WHITE</title><path class="cls-1" d="M67.69,54.81a0.48,0.48,0,0,0-.46-0.33H63l-1.31-4.05a0.48,0.48,0,0,0-.92,0l-1.32,4.05H55.15a0.48,0.48,0,0,0-.28.88l3.45,2.5L57,61.91a0.48,0.48,0,0,0,.75.54l3.45-2.5,3.45,2.5a0.49,0.49,0,0,0,.57,0,0.48,0.48,0,0,0,.18-0.54l-1.32-4.05,3.45-2.5a0.48,0.48,0,0,0,.18-0.54h0ZM61.48,59a0.49,0.49,0,0,0-.57,0l-2.53,1.84,1-3a0.48,0.48,0,0,0-.18-0.54l-2.52-1.83h3.12a0.48,0.48,0,0,0,.46-0.33l1-3,1,3a0.48,0.48,0,0,0,.46.33h3.12l-2.53,1.83a0.48,0.48,0,0,0-.18.54l1,3L61.48,59h0Z" transform="translate(-26.67 -23.33)"/><path class="cls-1" d="M50.22,66.5a0.48,0.48,0,0,0-.46-0.33H45.5l-1.32-4.05a0.48,0.48,0,0,0-.92,0l-1.32,4.05H37.68a0.49,0.49,0,0,0-.28.88l3.45,2.5L39.53,73.6a0.48,0.48,0,0,0,.75.54l3.45-2.5,3.45,2.5a0.49,0.49,0,0,0,.57,0,0.48,0.48,0,0,0,.18-0.54L46.6,69.55,50,67a0.48,0.48,0,0,0,.18-0.54h0ZM44,70.65a0.49,0.49,0,0,0-.57,0l-2.53,1.83,1-3A0.48,0.48,0,0,0,41.7,69l-2.52-1.83H42.3a0.48,0.48,0,0,0,.46-0.33l1-3,1,3a0.48,0.48,0,0,0,.46.33h3.12L45.74,69a0.48,0.48,0,0,0-.18.54l1,3L44,70.65h0Z" transform="translate(-26.67 -23.33)"/><path class="cls-1" d="M72.46,67l3.45,2.5L74.59,73.6a0.48,0.48,0,0,0,.18.54,0.49,0.49,0,0,0,.57,0l3.45-2.5,3.45,2.5A0.48,0.48,0,0,0,83,73.6l-1.32-4.05L85.11,67a0.49,0.49,0,0,0-.28-0.88H80.56l-1.32-4.05a0.48,0.48,0,0,0-.92,0L77,66.17H72.74a0.48,0.48,0,0,0-.29.88h0ZM76,72.48l1-3A0.48,0.48,0,0,0,76.76,69l-2.53-1.83h3.12a0.48,0.48,0,0,0,.46-0.33l1-3,1,3a0.48,0.48,0,0,0,.46.33h3.12L80.81,69a0.48,0.48,0,0,0-.18.54l1,3-2.53-1.83a0.49,0.49,0,0,0-.57,0L76,72.48h0Z" transform="translate(-26.67 -23.33)"/><path class="cls-1" d="M120.81,83.45a11.68,11.68,0,0,1-2.42,1,8.68,8.68,0,0,1-2.55.41,7.56,7.56,0,0,1-2.88-.53,6.47,6.47,0,0,1-2.2-1.45,6.4,6.4,0,0,1-1.39-2.21,7.67,7.67,0,0,1-.48-2.76,8.11,8.11,0,0,1,.46-2.76A6.47,6.47,0,0,1,110.68,73a6.06,6.06,0,0,1,2.14-1.47,7.28,7.28,0,0,1,2.86-.53,8.57,8.57,0,0,1,2.55.42,12,12,0,0,1,2.42,1l0.76-1.56A12.73,12.73,0,0,0,119,69.75a10.06,10.06,0,0,0-6.68.17,8.77,8.77,0,0,0-2.84,1.83,8.24,8.24,0,0,0-1.88,2.75,8.71,8.71,0,0,0-.68,3.45,8.9,8.9,0,0,0,.67,3.48,8.1,8.1,0,0,0,1.87,2.75,8.4,8.4,0,0,0,2.83,1.8,9.64,9.64,0,0,0,3.59.64,9.47,9.47,0,0,0,3.12-.49A12.38,12.38,0,0,0,121.41,85l-0.6-1.56h0Zm16.6-2.72A6.85,6.85,0,0,1,136.09,83a6.09,6.09,0,0,1-4.61,2,6.14,6.14,0,0,1-2.59-.54,6,6,0,0,1-2-1.49,6.85,6.85,0,0,1-1.33-2.23,8.45,8.45,0,0,1,0-5.55,6.84,6.84,0,0,1,1.33-2.23,6,6,0,0,1,2-1.49,6.14,6.14,0,0,1,2.59-.54,6.07,6.07,0,0,1,4.61,2,6.85,6.85,0,0,1,1.33,2.23,8.45,8.45,0,0,1,0,5.55m1.82-6.28a8.28,8.28,0,0,0-1.79-2.74,8.37,8.37,0,0,0-2.66-1.8,8.18,8.18,0,0,0-3.23-.65,8.33,8.33,0,0,0-3.24.65,8.57,8.57,0,0,0-2.71,1.8A8.62,8.62,0,0,0,123,77.95a8.92,8.92,0,0,0,.66,3.48,8.39,8.39,0,0,0,1.8,2.75,8,8,0,0,0,2.66,1.8,8.12,8.12,0,0,0,3.22.64,8.45,8.45,0,0,0,6-2.44,8.81,8.81,0,0,0,1.85-2.75,8.69,8.69,0,0,0,.69-3.48,9,9,0,0,0-.66-3.5m14.25,11.89V84.69h-8V69.53h-1.84V86.34h9.88Zm12.71,0V84.69h-8V69.53h-1.84V86.34h9.88Zm12.72,0V84.69h-8V78.63h7.23V77h-7.23v-5.8h8V69.53H169V86.34h9.88ZM190.5,78v1.72H195v4.1a8.18,8.18,0,0,1-2,.87,9,9,0,0,1-2.27.28,7,7,0,0,1-2.76-.54A6.78,6.78,0,0,1,185.66,83a7.34,7.34,0,0,1-1.5-2.23,7.08,7.08,0,0,1-.55-2.78,7.85,7.85,0,0,1,.46-2.67A6.7,6.7,0,0,1,185.41,73a6.21,6.21,0,0,1,2.15-1.55,7.06,7.06,0,0,1,2.89-.57,8.1,8.1,0,0,1,2.76.49,10.08,10.08,0,0,1,2.56,1.35l1-1.45c-0.44-.31-0.89-0.58-1.35-0.84a9.39,9.39,0,0,0-1.43-.64,9.6,9.6,0,0,0-1.62-.41,11.59,11.59,0,0,0-1.91-.14,8.65,8.65,0,0,0-3.22.62,9.18,9.18,0,0,0-2.82,1.75,8.87,8.87,0,0,0-2,2.74,8.12,8.12,0,0,0-.77,3.58,8.33,8.33,0,0,0,.75,3.57,8.47,8.47,0,0,0,2,2.72A9,9,0,0,0,187.25,86a9.6,9.6,0,0,0,3.39.62,10.43,10.43,0,0,0,3.38-.51,9.75,9.75,0,0,0,2.79-1.46V78H190.5Zm20.23,8.33V84.69h-8V78.63h7.23V77h-7.23v-5.8h8V69.53h-9.88V86.34h9.88Z" transform="translate(-26.67 -23.33)"/><path class="cls-1" d="M119.18,63.41V61.76h-8V46.6H109.3V63.41h9.88ZM132,57.21h-6.22L128.85,50,132,57.21h0Zm4.65,6.2L129,46.29h-0.3l-7.57,17.11h1.91l2-4.66h7.55l2,4.66h2Zm14.3-5.77a6.19,6.19,0,0,1-1.33,2.26,6.09,6.09,0,0,1-2.26,1.51,8.62,8.62,0,0,1-3.24.55c-0.68,0-1.25,0-1.72,0a7.76,7.76,0,0,1-1.23-.15V48.22a9,9,0,0,1,1.21-.14q0.75,0,1.51,0a9.33,9.33,0,0,1,3.24.51A6.68,6.68,0,0,1,149.44,50a5.93,5.93,0,0,1,1.43,2.16,7.5,7.5,0,0,1,.48,2.72,8.59,8.59,0,0,1-.44,2.79m1.82-5.91A7.9,7.9,0,0,0,150.9,49a8.85,8.85,0,0,0-3-1.87,11.49,11.49,0,0,0-4.18-.7c-0.86,0-1.65,0-2.36.08s-1.39.12-2,.2V63.27c0.66,0.08,1.37.14,2.13,0.2s1.57,0.08,2.43.08a11,11,0,0,0,4.16-.72,8.6,8.6,0,0,0,3-1.93,7.85,7.85,0,0,0,1.77-2.78,9.21,9.21,0,0,0,.59-3.27,8.12,8.12,0,0,0-.62-3.13m6.18-5.13h-1.84V63.4h1.84V46.6h0ZM173.3,63.41V61.76h-8V55.7h7.23V54h-7.23v-5.8h8V46.6h-9.88V63.41h9.88Zm12.58-6.06a3.39,3.39,0,0,0-.73-1.24A6.43,6.43,0,0,0,183.76,55a20.73,20.73,0,0,0-2.19-1.14,6.67,6.67,0,0,1-2.22-1.44,2.35,2.35,0,0,1-.66-1.6,2.89,2.89,0,0,1,.21-1.09,2.59,2.59,0,0,1,.6-0.9,2.87,2.87,0,0,1,1-.61,3.94,3.94,0,0,1,1.39-.23,4.9,4.9,0,0,1,1.62.28,5.69,5.69,0,0,1,1.42.75l0.83-1.56a6.78,6.78,0,0,0-1.7-.82,6.34,6.34,0,0,0-2-.32,5.64,5.64,0,0,0-2.11.38,5.16,5.16,0,0,0-1.64,1,4.46,4.46,0,0,0-1,1.45,4.28,4.28,0,0,0-.37,1.75,4.22,4.22,0,0,0,.22,1.38,3.78,3.78,0,0,0,.69,1.2A5.46,5.46,0,0,0,179,54.54a12.3,12.3,0,0,0,1.86,1,14.71,14.71,0,0,1,1.69.86,4.28,4.28,0,0,1,1,.81,2.42,2.42,0,0,1,.5.87,3.55,3.55,0,0,1,.14,1,3.16,3.16,0,0,1-.19,1.1,2.75,2.75,0,0,1-.59.94,2.91,2.91,0,0,1-1,.66A3.87,3.87,0,0,1,181,62a5.65,5.65,0,0,1-2-.4,8.6,8.6,0,0,1-2-1.09l-0.9,1.6a10.46,10.46,0,0,0,2.27,1.15,7.88,7.88,0,0,0,2.62.41,5.64,5.64,0,0,0,2-.37,5,5,0,0,0,1.64-1,4.73,4.73,0,0,0,1.08-1.53,4.53,4.53,0,0,0,.39-1.91,5.17,5.17,0,0,0-.2-1.51m4.74-10.62a1.1,1.1,0,0,0-.92-0.41,1.13,1.13,0,0,0-.8,1.91,1.31,1.31,0,0,0,.87.38,4.79,4.79,0,0,1-.48,1.11,4.38,4.38,0,0,1-1,1.16l0.25,0.37a5.79,5.79,0,0,0,1.08-.8,4.64,4.64,0,0,0,.73-0.91,4.24,4.24,0,0,0,.44-0.93,2.73,2.73,0,0,0,.15-0.87,1.58,1.58,0,0,0-.32-1" transform="translate(-26.67 -23.33)"/><path class="cls-1" d="M120.81,37.58a12.05,12.05,0,0,1-2.42,1,8.67,8.67,0,0,1-2.55.41A7.56,7.56,0,0,1,113,38.5a6.26,6.26,0,0,1-3.59-3.66,7.77,7.77,0,0,1-.48-2.76,8.09,8.09,0,0,1,.46-2.76,6.42,6.42,0,0,1,1.34-2.21,6.08,6.08,0,0,1,2.14-1.47,7.37,7.37,0,0,1,2.86-.53,8.59,8.59,0,0,1,2.56.41,12.2,12.2,0,0,1,2.42,1L121.41,25A12.55,12.55,0,0,0,119,23.87a10,10,0,0,0-6.68.17,8.82,8.82,0,0,0-2.85,1.83,8.33,8.33,0,0,0-1.88,2.75,8.68,8.68,0,0,0-.68,3.45,8.87,8.87,0,0,0,.67,3.47,8,8,0,0,0,1.87,2.75,8.4,8.4,0,0,0,2.83,1.8,9.7,9.7,0,0,0,3.6.64,9.59,9.59,0,0,0,3.12-.49,12.73,12.73,0,0,0,2.45-1.12l-0.6-1.56h0Zm16.27,2.89V23.66h-1.84v7.45h-9V23.66h-1.84V40.47h1.84V32.76h9v7.71h1.84Zm14.34,0V38.82h-8V32.76h7.23V31.11h-7.23v-5.8h8V23.66h-9.88V40.47h9.88Zm13.38,0V38.82h-8V23.66h-1.85V40.47h9.88Zm12.48-15.16V23.66h-13.1v1.65h5.64V40.47h1.84V25.31h5.62ZM190.1,40.47V38.82h-8V32.76h7.23V31.11h-7.23v-5.8h8V23.66h-9.88V40.47h9.88Zm16.54,0.25V23.66h-1.85V36.2L194,23.33l-0.37.09v17h1.84V27.71l11,13.08,0.23-.07h0Zm17.17-.25V23.66H222v7.45h-9V23.66h-1.84V40.47h1.84V32.76h9v7.71h1.85Zm13.49-6.2h-6.22l3.11-7.22,3.11,7.22h0Zm4.65,6.2-7.58-17.11h-0.3l-7.58,17.11h1.91l2-4.66H238l2,4.66h2Zm19,0-0.64-17.09-0.37,0L252.84,36l-7.33-12.66-0.34,0-0.65,17.09h1.87l0.21-11.9,6,10.18h0.25l6-10.16,0.25,11.89H261Z" transform="translate(-26.67 -23.33)"/><path class="cls-1" d="M59.15,43.32a0.49,0.49,0,0,0-.53-0.25c-1.58.31-3.22-.28-5.23-1.88a8.78,8.78,0,0,0,4.16-5.49,0.49,0.49,0,0,0-.33-0.58,13.78,13.78,0,0,0-2.58-.51,7.27,7.27,0,0,0,.71-2.44A0.5,0.5,0,0,0,55,31.65a11.65,11.65,0,0,0-10.29,2.54,9.72,9.72,0,0,0-3.64-1.59c-0.07-.26-0.15-0.51-0.22-0.77-0.42-1.59-.81-3.09-2.17-4a4.58,4.58,0,0,0-3.86-.64,3.28,3.28,0,0,0-2,1.71,5.19,5.19,0,0,0-3.16,1.13,0.49,0.49,0,0,0-.13.56,0.5,0.5,0,0,0,.49.3c2-.13,3.17.31,3.23,0.81a3.56,3.56,0,0,1-.25,1,8,8,0,0,0,.28,6.82v0h0a10.16,10.16,0,0,0,5.49,4.82,14.88,14.88,0,0,0,2.41.65c-0.25,1.76-.49,2.37-1.64,2.47A3.17,3.17,0,0,1,38,47.24a0.49,0.49,0,0,0-.43.88,3.7,3.7,0,0,0,1.3.3,0.29,0.29,0,0,0,.09,0,9.29,9.29,0,0,0,1.26,0l0.6-.05a8.11,8.11,0,0,1,3.91.27,0.49,0.49,0,1,0,.43-0.88,5.13,5.13,0,0,0-2-.45c0.07-.06.14-0.1,0.2-0.16a7.09,7.09,0,0,0,1.36-1.91,12.15,12.15,0,0,0,3.41-.65,10.4,10.4,0,0,0,5,1.28,8.51,8.51,0,0,0,5.8-2,0.48,0.48,0,0,0,.09-0.58h0ZM54.32,32.49a6.06,6.06,0,0,1-.75,2,9.26,9.26,0,0,0-4.08.65,6.12,6.12,0,0,0-3,2.63A6,6,0,0,1,44,37c1.55-3.76,7-5.23,10.36-4.49h0Zm-1.44,3a7.24,7.24,0,0,1-5.25,2.37H47.57a5.31,5.31,0,0,1,2.34-1.8,7.66,7.66,0,0,1,3-.56h0Zm-9.73.86a6.88,6.88,0,0,1-1.72-2.67A8.67,8.67,0,0,1,44,34.93a6.76,6.76,0,0,0-.9,1.44h0Zm-12-6.2a5.93,5.93,0,0,1,4.3.33h0a1.14,1.14,0,0,0,1.27.24,0.76,0.76,0,0,0,.4-0.68,0.82,0.82,0,0,0-.82-0.82,0.72,0.72,0,0,0-.63.29,6,6,0,0,0-1.7-.53,2.39,2.39,0,0,1,1.21-.84,3.58,3.58,0,0,1,3,.52c1,0.68,1.38,1.94,1.76,3.41,0.14,0.52.28,1.05,0.46,1.58a7,7,0,0,0,7.11,5.2h0.17a7.9,7.9,0,0,0,6.43-3.32,13.17,13.17,0,0,1,2.39.39c-1,3.36-4.5,5.75-8.66,5.87-5.79.16-9.92-2.83-11-8a0.49,0.49,0,0,0-.23-0.32,0.5,0.5,0,0,0-.4,0,4.61,4.61,0,0,0-2.77,2.12A9.37,9.37,0,0,1,33.94,33a3.35,3.35,0,0,0,.29-1.38c-0.1-.84-1.26-1.52-3.12-1.44h0Zm3.06,8.88a3.34,3.34,0,0,1-.08-2.75A3.44,3.44,0,0,1,36,34.51a10.4,10.4,0,0,0,5.79,7.14c-0.2.87-.32,1.66-0.42,2.37a13.63,13.63,0,0,1-2.19-.59,9.17,9.17,0,0,1-5-4.38h0Zm8.61,7.43a3.29,3.29,0,0,1-1.12.69,8.81,8.81,0,0,0,.6-2.62c0.1-.74.22-1.59,0.42-2.51a12.45,12.45,0,0,0,2.1.54,8.31,8.31,0,0,1-2,3.91h0Zm5.75-2.81a0.5,0.5,0,0,0-.41,0,12.37,12.37,0,0,1-2.87.66,14.49,14.49,0,0,0,.5-1.58,15.33,15.33,0,0,0,1.56.08h0.52a11.67,11.67,0,0,0,4.62-1.1,9.43,9.43,0,0,0,4.64,2.4,9.31,9.31,0,0,1-8.57-.42h0Z" transform="translate(-26.67 -23.33)"/><path class="cls-1" d="M92.91,43.32a0.49,0.49,0,0,0-.53-0.25c-1.58.31-3.22-.28-5.23-1.88a8.79,8.79,0,0,0,4.16-5.49A0.49,0.49,0,0,0,91,35.12a13.62,13.62,0,0,0-2.58-.51,7.17,7.17,0,0,0,.72-2.44,0.5,0.5,0,0,0-.35-0.52,11.66,11.66,0,0,0-10.29,2.54,9.71,9.71,0,0,0-3.63-1.59c-0.07-.26-0.16-0.51-0.22-0.77-0.42-1.59-.81-3.09-2.17-4a4.57,4.57,0,0,0-3.85-.64,3.26,3.26,0,0,0-2,1.71,5.19,5.19,0,0,0-3.16,1.13,0.49,0.49,0,0,0-.13.56,0.5,0.5,0,0,0,.49.3c2-.13,3.17.31,3.23,0.81a3.59,3.59,0,0,1-.25,1,8.51,8.51,0,0,0-.44,4.87,8.69,8.69,0,0,0,.71,2v0h0a10.17,10.17,0,0,0,5.49,4.82A14.75,14.75,0,0,0,75,45c-0.26,1.76-.49,2.37-1.64,2.47a3.17,3.17,0,0,1-1.51-.23,0.49,0.49,0,1,0-.43.88,3.71,3.71,0,0,0,1.29.3l0.09,0a9.24,9.24,0,0,0,1.25,0l0.61-.05a8.12,8.12,0,0,1,3.91.27A0.49,0.49,0,1,0,79,47.79a5.14,5.14,0,0,0-2-.45c0.07-.06.14-0.1,0.2-0.16a7.09,7.09,0,0,0,1.36-1.91A12.19,12.19,0,0,0,82,44.62a10.38,10.38,0,0,0,5,1.28,8.52,8.52,0,0,0,5.8-2,0.49,0.49,0,0,0,.09-0.58h0ZM88.08,32.49a6.08,6.08,0,0,1-.75,2,9.25,9.25,0,0,0-4.08.65,6.1,6.1,0,0,0-3.05,2.63A6,6,0,0,1,77.72,37c1.55-3.76,7-5.23,10.36-4.49h0Zm-1.44,3a7.24,7.24,0,0,1-5.25,2.37H81.33a5.3,5.3,0,0,1,2.34-1.8,7.65,7.65,0,0,1,3-.56h0Zm-9.73.86a6.89,6.89,0,0,1-1.72-2.67,8.65,8.65,0,0,1,2.62,1.23,6.77,6.77,0,0,0-.9,1.44h0Zm-12-6.2a5.93,5.93,0,0,1,4.3.33h0a1.14,1.14,0,0,0,1.26.24,0.76,0.76,0,0,0,.4-0.68A0.83,0.83,0,0,0,70,29.23a0.71,0.71,0,0,0-.63.29,6.06,6.06,0,0,0-1.7-.53,2.4,2.4,0,0,1,1.21-.84,3.58,3.58,0,0,1,3,.52c1,0.68,1.37,1.94,1.76,3.41,0.14,0.52.28,1.05,0.46,1.58a7,7,0,0,0,7.11,5.2H81.4a7.9,7.9,0,0,0,6.43-3.32,13.21,13.21,0,0,1,2.39.39c-1,3.36-4.5,5.75-8.67,5.87-5.79.16-9.92-2.83-11-8a0.49,0.49,0,0,0-.23-0.32,0.5,0.5,0,0,0-.39,0,4.6,4.6,0,0,0-2.77,2.12A9.44,9.44,0,0,1,67.7,33,3.36,3.36,0,0,0,68,31.61c-0.1-.84-1.26-1.52-3.12-1.44h0Zm3.06,8.88a3.32,3.32,0,0,1-.08-2.75,3.43,3.43,0,0,1,1.87-1.79,10.39,10.39,0,0,0,5.8,7.14c-0.2.87-.32,1.66-0.42,2.37a13.62,13.62,0,0,1-2.19-.59,9.17,9.17,0,0,1-5-4.38h0Zm8.62,7.43a3.27,3.27,0,0,1-1.13.69,8.74,8.74,0,0,0,.6-2.62c0.1-.74.23-1.59,0.43-2.51a12.52,12.52,0,0,0,2.09.54,8.32,8.32,0,0,1-2,3.91h0Zm5.75-2.81a0.5,0.5,0,0,0-.41,0,12.41,12.41,0,0,1-2.87.66,13.69,13.69,0,0,0,.5-1.58,15.43,15.43,0,0,0,1.57.08H81.6a11.69,11.69,0,0,0,4.62-1.1,9.4,9.4,0,0,0,4.64,2.4,9.31,9.31,0,0,1-8.56-.42h0Z" transform="translate(-26.67 -23.33)"/><path class="cls-1" d="M26.67,23.58V58c0,20,12.51,38.42,34.33,50.39l0.29,0.16,0.29-.16C83.4,96.39,95.91,78,95.91,58V23.58H26.67Zm2.7,46.12L61.29,46.45,93.2,69.72A50.31,50.31,0,0,1,86.92,84L61.29,65.34,35.65,84A50.27,50.27,0,0,1,29.37,69.7h0Zm31.91,37.46c-10.81-6-19.27-13.57-25-22.15l25-18.2L86.26,85c-5.71,8.57-14.16,16.15-25,22.14h0ZM94.71,58a46.49,46.49,0,0,1-1.2,10.48L61.29,45,29.06,68.45A46.49,46.49,0,0,1,27.86,58V24.77H94.71V58h0Z" transform="translate(-26.67 -23.33)"/><path class="cls-1" d="M75.25,87.62a0.48,0.48,0,0,0-.44-0.35h0a0.48,0.48,0,0,0-.46.3c-0.94,2.24-2.66,3.33-6.8,5.8a20.17,20.17,0,0,0-3,2.08,8.9,8.9,0,0,0-1.95,2.13c-0.09-.65-0.24-3.75-0.39-5.62a2.06,2.06,0,0,0,1.16.49,0.84,0.84,0,0,0,.24,0,2.21,2.21,0,0,0,1.24-1.75,3.5,3.5,0,0,0-.13-1.09,3.59,3.59,0,0,0,.83.73,2.63,2.63,0,0,0,1.19.27,1.45,1.45,0,0,0,1-.29A2.15,2.15,0,0,0,68,88.16a3.57,3.57,0,0,0-.62-0.91,3.63,3.63,0,0,0,1.1.26,2.25,2.25,0,0,0,1.87-1,2.19,2.19,0,0,0-.74-2,3.57,3.57,0,0,0-1-.51,3.49,3.49,0,0,0,1.06-.26,2.21,2.21,0,0,0,1.21-1.78,2.21,2.21,0,0,0-1.6-1.44,3.51,3.51,0,0,0-1.09,0A3.49,3.49,0,0,0,69,79.76a2.23,2.23,0,0,0,.24-2.13A2,2,0,0,0,67.69,77a2,2,0,0,0-.54.06,3.56,3.56,0,0,0-1,.5,3.57,3.57,0,0,0,.39-1,2.25,2.25,0,0,0-.78-2,2.33,2.33,0,0,0-2.1.5,3.47,3.47,0,0,0-.63.9,3.58,3.58,0,0,0-.13-1.09,2.23,2.23,0,0,0-1.62-1.41,2.19,2.19,0,0,0-1.62,1.41A3.57,3.57,0,0,0,59.53,76a3.51,3.51,0,0,0-.63-0.9,2.32,2.32,0,0,0-2.1-.5,2.17,2.17,0,0,0-.78,2,3.47,3.47,0,0,0,.38,1,3.54,3.54,0,0,0-1-.51A2,2,0,0,0,54.89,77a2,2,0,0,0-1.55.6,2.2,2.2,0,0,0,.24,2.13,3.57,3.57,0,0,0,.82.73,3.52,3.52,0,0,0-1.1,0,2.23,2.23,0,0,0-1.6,1.44,2.19,2.19,0,0,0,1.21,1.78A3.56,3.56,0,0,0,54,84a3.61,3.61,0,0,0-1,.51,2.21,2.21,0,0,0-.74,2,2.17,2.17,0,0,0,1.89,1h0a3.52,3.52,0,0,0,1.08-.26,3.55,3.55,0,0,0-.63.9,2.23,2.23,0,0,0,.28,2.13,1.39,1.39,0,0,0,.95.3,2.72,2.72,0,0,0,1.2-.28,3.6,3.6,0,0,0,.83-0.73,3.52,3.52,0,0,0-.13,1.09A2.2,2.2,0,0,0,59,92.43a1.82,1.82,0,0,0,1.4-.45c-0.15,1.87-.29,5-0.38,5.61A8.91,8.91,0,0,0,58,95.45a20.16,20.16,0,0,0-3-2.08c-4.14-2.47-5.85-3.56-6.8-5.8a0.48,0.48,0,0,0-.46-0.3h0a0.48,0.48,0,0,0-.44.35c-1.16,3.88.71,7.15,5.74,10l1.06,0.59,0.23,0.13a27.93,27.93,0,0,1,3.75,2.29,9,9,0,0,1,2.78,4.06,0.42,0.42,0,0,0,.4.29h0a0.42,0.42,0,0,0,.4-0.29,9,9,0,0,1,2.78-4.06,28,28,0,0,1,3.75-2.29l0.23-.13,1.06-.59c5-2.85,6.9-6.12,5.74-10h0ZM63.38,91.49h0a1.69,1.69,0,0,1-.85-0.56,14.77,14.77,0,0,1-.77-4l-0.1-.83a3.08,3.08,0,0,0,.77-0.18l0,0.1c0.77,2,1.49,3.84,1.43,4.56a1.55,1.55,0,0,1-.49.89h0Zm3.68-1.93,0,0a0.57,0.57,0,0,1-.29.05A1.78,1.78,0,0,1,66,89.47a14.87,14.87,0,0,1-2.54-3.18L63,85.62a3.07,3.07,0,0,0,.59-0.53l0,0c1.69,1.48,3.16,2.75,3.44,3.41a1.6,1.6,0,0,1,0,1h0ZM69,85.24a1.58,1.58,0,0,1,.46.9v0a1.63,1.63,0,0,1-.95.39h0a14.7,14.7,0,0,1-3.67-1.61L64,84.53a3,3,0,0,0,.29-0.74h0.06c2.18,0.52,4.07,1,4.63,1.43h0Zm0.12-3.79a1.62,1.62,0,0,1,.83.58v0a1.53,1.53,0,0,1-.66.79,15,15,0,0,1-4.07.28H64.36v0a3,3,0,0,0-.11-0.76l0.12,0c2.18-.55,4-1,4.71-0.87h0ZM67.42,78a1,1,0,0,1,.27,0,1.47,1.47,0,0,1,.75.16v0a1.57,1.57,0,0,1-.22,1,14.82,14.82,0,0,1-3.48,2.13L64,81.71A3.05,3.05,0,0,0,63.56,81l0.1-.08A17.78,17.78,0,0,1,67.42,78h0Zm-5,2c0.77-2,1.43-3.8,1.94-4.28a1.76,1.76,0,0,1,.88-0.36h0.1a1.55,1.55,0,0,1,.28,1,14.62,14.62,0,0,1-2.06,3.46l-0.49.72a3.1,3.1,0,0,0-.7-0.36l0.07-.18h0Zm-1.83-4.86a1.53,1.53,0,0,1,.69-0.74h0a1.51,1.51,0,0,1,.7.75,14.78,14.78,0,0,1-.21,4.07v0l-0.09.8a2.93,2.93,0,0,0-.39,0,3,3,0,0,0-.4,0V80c-0.28-2.21-.53-4.12-0.29-4.8h0ZM61.29,81a2.11,2.11,0,1,1-2.12,2.11A2.12,2.12,0,0,1,61.29,81h0Zm-4.05-5.54a0.2,0.2,0,0,1,.11,0,1.75,1.75,0,0,1,.88.35,14.93,14.93,0,0,1,1.71,3.72l0.29,0.75a3.06,3.06,0,0,0-.7.37l0-.06c-1.28-1.83-2.39-3.41-2.51-4.12a1.55,1.55,0,0,1,.26-1h0Zm-2.88,3.74a1.56,1.56,0,0,1-.23-1v0A1.38,1.38,0,0,1,54.91,78a1,1,0,0,1,.26,0,15.13,15.13,0,0,1,3.25,2.5L59,81.05a3,3,0,0,0-.45.65l-0.09,0c-2-1-3.7-1.9-4.12-2.47h0Zm-1,3.66a1.56,1.56,0,0,1-.66-0.77v0a1.5,1.5,0,0,1,.83-0.6,1.28,1.28,0,0,1,.29,0,21.73,21.73,0,0,1,3.75.73l0.79,0.19a3,3,0,0,0-.11.76v0H57a12.11,12.11,0,0,1-3.65-.28h0Zm0.79,3.71h0a1.57,1.57,0,0,1-.92-0.37v0a1.54,1.54,0,0,1,.45-0.92A14.93,14.93,0,0,1,57.51,84l0.81-.2a3,3,0,0,0,.29.74l-0.16.09a17.42,17.42,0,0,1-4.32,1.93h0Zm2.44,2.92a1.81,1.81,0,0,1-.74.15,0.53,0.53,0,0,1-.27,0h0a1.52,1.52,0,0,1,0-1,14.62,14.62,0,0,1,2.82-2.85l0.67-.6a3.07,3.07,0,0,0,.59.53l-0.08.12c-1.25,1.82-2.33,3.39-2.94,3.74h0Zm2.68,2h0a1.53,1.53,0,0,1-.5-0.89,15,15,0,0,1,1.18-3.88l0.29-.78a3,3,0,0,0,.77.18l0,0.13c-0.26,2.2-.48,4.1-0.86,4.69a1.75,1.75,0,0,1-.84.56h0ZM69,96.77l-1.26.7a28.64,28.64,0,0,0-3.9,2.39,8.68,8.68,0,0,0-2.59,3.38,8.68,8.68,0,0,0-2.59-3.38,28.61,28.61,0,0,0-3.9-2.39l-1.26-.7c-4-2.27-5.81-4.76-5.54-7.6,1.24,1.87,3.31,3.11,6.54,5a16.34,16.34,0,0,1,3.36,2.44,8.31,8.31,0,0,1,2,2.84,0.54,0.54,0,0,0,.46.48c0.21,0,.36-0.12.41-0.54,0.13-1.08.41-5.87,0.52-7.41,0.12,1.53.39,6.32,0.52,7.41,0.05,0.42.2,0.54,0.41,0.54a0.54,0.54,0,0,0,.46-0.48,8.31,8.31,0,0,1,2-2.84A16.34,16.34,0,0,1,68,94.21c3.23-1.92,5.3-3.16,6.54-5C74.85,92,73,94.51,69,96.77h0Z" transform="translate(-26.67 -23.33)"/></svg>